<svg width="89" height="89" viewBox="0 0 89 89" fill="none" xmlns="http://www.w3.org/2000/svg">
<path fill-rule="evenodd" clip-rule="evenodd" d="M59.152 12.0937C52.061 8.93414 44.1385 8.1514 36.5663 9.86225C28.994 11.5731 22.1777 15.6859 17.1338 21.5872C12.09 27.4885 9.08883 34.8622 8.57804 42.6085C8.06725 50.3548 10.0742 58.0586 14.2995 64.5712C18.5248 71.0837 24.7421 76.0559 32.0241 78.7462C39.3061 81.4366 47.2628 81.7009 54.7073 79.4998C62.1518 77.2986 68.6854 72.75 73.3336 66.5323C77.9818 60.3146 80.4956 52.7608 80.5 44.9977V41.32C80.5 39.1109 82.2909 37.32 84.5 37.32C86.7092 37.32 88.5 39.1109 88.5 41.32V45C88.4946 54.4883 85.4222 63.7229 79.7411 71.3223C74.0599 78.9218 66.0744 84.4812 56.9756 87.1715C47.8767 89.8617 38.1519 89.5387 29.2517 86.2505C20.3514 82.9623 12.7525 76.8851 7.58823 68.9254C2.42397 60.9656 -0.0289188 51.5498 0.595378 42.0821C1.21967 32.6144 4.88771 23.6021 11.0524 16.3894C17.2172 9.1767 25.5483 4.14998 34.8032 2.05894C44.0582 -0.0321009 53.7412 0.924579 62.408 4.7863C64.4259 5.68542 65.3329 8.05012 64.4337 10.068C63.5346 12.0859 61.1699 12.9928 59.152 12.0937Z" fill="#00B14F"/>
<path fill-rule="evenodd" clip-rule="evenodd" d="M87.327 10.1702C88.8899 11.7315 88.8912 14.2641 87.3298 15.827L47.3298 55.867C46.5798 56.6178 45.5622 57.0397 44.501 57.04C43.4398 57.0403 42.422 56.6188 41.6716 55.8684L29.6716 43.8684C28.1095 42.3063 28.1095 39.7737 29.6716 38.2116C31.2337 36.6495 33.7663 36.6495 35.3284 38.2116L44.4986 47.3817L81.6702 10.173C83.2315 8.61011 85.7641 8.60884 87.327 10.1702Z" fill="#00B14F"/>
</svg>
